<svg width="250" height="250" viewBox="0 0 250 250" fill="none" xmlns="http://www.w3.org/2000/svg">
<rect width="250" height="250" rx="125" fill="#EF9723"/>
<g clip-path="url(#clip0)">
<path d="M148.285 115.674L146.796 119.158L137.665 131.299C137.665 131.299 131.412 138.066 134.886 138.464C138.36 138.862 140.642 132.194 140.642 132.194L151.362 121.546L152.553 116.67L148.285 115.674Z" fill="#9F616A"/>
<path d="M152.851 101.543L151.412 101.947C151.412 101.947 144.952 119.154 145.547 121.244C146.143 123.334 148.823 125.921 150.014 125.722C151.205 125.523 152.851 101.543 152.851 101.543Z" fill="#C15610"/>
<path d="M172.955 189.973C172.955 189.973 172.323 193.147 174.222 191.877C176.121 190.606 177.111 188.149 177.111 188.149L172.955 189.973Z" fill="#2F2E41"/>
<path d="M150.469 118.361C150.469 118.361 130.32 189.616 137.466 191.706C144.613 193.796 155.134 191.507 155.035 190.113C154.935 188.72 153.149 161.154 153.149 161.154C153.149 161.154 163.571 197.776 176.474 189.218C189.378 180.659 186.499 179.067 185.308 178.47C184.117 177.873 166.152 149.51 166.251 144.236C166.35 138.962 166.052 122.442 163.869 119.954L150.469 118.361Z" fill="#2F2E41"/>
<path d="M194.916 194H72.6291V193.534H195L194.916 194Z" fill="#3F3D56"/>
<path d="M163.267 93.0276C162.492 92.3246 162.008 91.3551 161.912 90.3115C161.816 89.2678 162.115 88.2261 162.749 87.3929C162.665 87.4718 162.583 87.5537 162.504 87.6408C161.764 88.4632 161.379 89.5468 161.435 90.6534C161.491 91.76 161.983 92.7991 162.803 93.5422C163.623 94.2853 164.703 94.6717 165.807 94.6164C166.911 94.5611 167.947 94.0686 168.689 93.2472C168.768 93.1601 168.841 93.07 168.91 92.9784C168.147 93.6946 167.144 94.0972 166.098 94.1063C165.053 94.1154 164.042 93.7304 163.267 93.0276V93.0276Z" fill="#2F2E41"/>
<path d="M162.876 94.0295C167.618 94.0295 171.462 90.1754 171.462 85.4212C171.462 80.667 167.618 76.813 162.876 76.813C158.134 76.813 154.29 80.667 154.29 85.4212C154.29 90.1754 158.134 94.0295 162.876 94.0295Z" fill="#2F2E41"/>
<path d="M139.749 191.407C139.749 191.407 137.466 193.696 139.749 193.696C142.032 193.696 144.216 192.203 144.216 192.203L139.749 191.407Z" fill="#2F2E41"/>
<path d="M157.417 90.7951C157.417 90.7951 158.906 96.9652 157.814 98.1594C156.722 99.3536 154.34 100.249 154.34 100.249L154.737 111.395C154.737 111.395 159.303 109.803 159.501 109.604C159.7 109.405 163.769 102.936 163.769 102.936L167.74 99.1546C167.74 99.1546 161.685 96.2686 163.472 91.2927C165.258 86.3169 157.417 90.7951 157.417 90.7951Z" fill="#9F616A"/>
<path d="M166.184 88.7381C166.641 85.917 164.73 83.2589 161.916 82.8011C159.102 82.3433 156.451 84.2591 155.995 87.0802C155.538 89.9013 157.449 92.5594 160.263 93.0172C163.076 93.475 165.728 91.5592 166.184 88.7381Z" fill="#9F616A"/>
<path d="M163.869 119.954C163.869 119.954 166.152 112.39 167.243 111.395C168.335 110.4 171.015 101.045 171.015 101.045C171.015 101.045 169.328 98.7565 167.938 98.7565C166.549 98.7565 165.258 99.2541 163.67 100.747C162.922 101.45 161.558 102.223 160.324 102.845C159.886 103.069 159.408 103.204 158.918 103.241C158.427 103.278 157.934 103.217 157.468 103.061C157.001 102.904 156.57 102.657 156.2 102.332C155.83 102.007 155.529 101.611 155.313 101.168C155.066 100.642 154.985 100.139 155.233 99.7517C155.233 99.7517 151.561 100.747 151.362 102.14C151.164 103.533 151.362 106.419 151.064 107.016C150.767 107.614 149.873 108.509 150.27 112.291C150.667 116.073 149.856 120.855 149.856 120.855C153.564 124.402 158.7 122.212 163.869 119.954Z" fill="#C15610"/>
<path d="M161.04 86.2671C163.452 86.2671 165.407 84.9304 165.407 83.2816C165.407 81.6327 163.452 80.2961 161.04 80.2961C158.628 80.2961 156.672 81.6327 156.672 83.2816C156.672 84.9304 158.628 86.2671 161.04 86.2671Z" fill="#2F2E41"/>
<path d="M168.484 83.0826C170.786 83.0826 172.653 81.2112 172.653 78.9028C172.653 76.5944 170.786 74.7231 168.484 74.7231C166.182 74.7231 164.315 76.5944 164.315 78.9028C164.315 81.2112 166.182 83.0826 168.484 83.0826Z" fill="#2F2E41"/>
<path d="M171.462 81.8884C170.416 81.8882 169.409 81.4943 168.64 80.7846C167.871 80.075 167.396 79.1014 167.309 78.057C167.299 78.1719 167.293 78.2879 167.293 78.4053C167.293 79.5134 167.732 80.5761 168.514 81.3598C169.295 82.1434 170.355 82.5839 171.46 82.5844C172.565 82.5849 173.625 82.1453 174.408 81.3623C175.19 80.5793 175.63 79.5169 175.631 78.4088V78.4053C175.631 78.2879 175.625 78.1719 175.615 78.057C175.528 79.1014 175.053 80.075 174.284 80.7846C173.514 81.4943 172.507 81.8882 171.462 81.8884V81.8884Z" fill="#2F2E41"/>
<path d="M161.684 145.813H160.297L157.526 170.049L166.667 169.742L161.684 145.813Z" fill="#C15610"/>
<path opacity="0.2" d="M161.684 145.813H160.297L157.526 170.049L166.667 169.742L161.684 145.813Z" fill="black"/>
<path d="M161.222 145.504L159.529 169.895L180.274 171.44L181.967 147.665L161.222 145.504Z" fill="#C15610"/>
<path opacity="0.2" d="M168.207 147.975C168.377 147.975 168.516 147.836 168.516 147.665C168.516 147.494 168.377 147.355 168.207 147.355C168.036 147.355 167.898 147.494 167.898 147.665C167.898 147.836 168.036 147.975 168.207 147.975Z" fill="black"/>
<path opacity="0.2" d="M174.674 148.746C174.844 148.746 174.983 148.607 174.983 148.436C174.983 148.265 174.844 148.126 174.674 148.126C174.503 148.126 174.365 148.265 174.365 148.436C174.365 148.607 174.503 148.746 174.674 148.746Z" fill="black"/>
<path d="M174.75 148.438H174.597C174.597 148.372 174.706 141.86 170.976 141.26C170.241 141.142 169.64 141.309 169.191 141.755C167.651 143.287 168.288 147.611 168.294 147.654L168.143 147.678C168.115 147.496 167.489 143.231 169.084 141.646C169.57 141.162 170.218 140.98 171.001 141.106C174.861 141.725 174.753 148.372 174.75 148.438Z" fill="#3F3D56"/>
<path d="M171.313 114.779L170.817 120.352L171.809 137.071C171.809 137.071 174.092 145.53 170.618 145.331C167.144 145.132 168.434 136.474 168.434 136.474L166.846 117.068L171.313 114.779Z" fill="#9F616A"/>
<path d="M168.434 99.6522L171.015 101.045C171.015 101.045 174.489 124.719 172.504 127.008C170.519 129.297 166.449 130.193 166.251 129.297C166.052 128.402 165.357 110.201 165.357 110.201L168.434 99.6522Z" fill="#C15610"/>
<path d="M68.0507 56H65.1561C65.0543 56 64.9567 56.0405 64.8847 56.1127C64.8127 56.1849 64.7723 56.2827 64.7723 56.3848V57.6586C64.7723 57.7607 64.8127 57.8586 64.8847 57.9307C64.9567 58.0029 65.0543 58.0434 65.1561 58.0434H65.6358V59.9521H67.571V58.0434H68.0507C68.1525 58.0434 68.2501 58.0029 68.3221 57.9307C68.394 57.8586 68.4345 57.7607 68.4345 57.6586V56.3848C68.4345 56.2827 68.394 56.1849 68.3221 56.1127C68.2501 56.0405 68.1525 56 68.0507 56V56Z" fill="#E6E6E6"/>
<path d="M70.95 67.6584C69.1772 65.0576 68.271 61.961 68.361 58.8121C68.3626 58.7394 68.3391 58.6685 68.2945 58.6112C68.2498 58.554 68.1868 58.514 68.116 58.4981V57.9476H65.0589V58.4904H65.0168C64.9756 58.4905 64.9348 58.4987 64.8968 58.5145C64.8587 58.5304 64.8242 58.5536 64.7951 58.5828C64.766 58.6121 64.7429 58.6468 64.7272 58.6849C64.7115 58.7231 64.7035 58.764 64.7035 58.8053C64.7035 58.813 64.7038 58.8206 64.7044 58.8282C64.9452 62.1943 64.1319 65.213 62.2645 67.8842C62.1571 68.0377 62.1022 68.222 62.1081 68.4094L62.4424 78.7768C62.4504 79.008 62.5472 79.2272 62.7126 79.3886C62.8779 79.55 63.0991 79.6411 63.3298 79.643H70.2446C70.478 79.6411 70.7014 79.5479 70.8673 79.3832C71.0332 79.2186 71.1284 78.9955 71.1326 78.7615L71.2614 68.6957C71.2652 68.3262 71.1566 67.9644 70.95 67.6584V67.6584Z" fill="#E6E6E6"/>
<path d="M69.8554 71.1021H63.8366C63.7476 71.1021 63.6595 71.1214 63.5786 71.1587C63.4976 71.196 63.4257 71.2505 63.3677 71.3183C63.3096 71.386 63.2669 71.4656 63.2425 71.5515C63.218 71.6374 63.2124 71.7276 63.2259 71.8159L64.1354 77.7432H69.358L70.4627 71.8358C70.4795 71.7464 70.4763 71.6543 70.4535 71.5662C70.4307 71.478 70.3889 71.396 70.3309 71.326C70.2729 71.2559 70.2002 71.1996 70.118 71.1609C70.0359 71.1222 69.9462 71.1021 69.8554 71.1021V71.1021Z" fill="white"/>
<path d="M100.274 87.0566H97.3789C97.2771 87.0566 97.1795 87.0971 97.1075 87.1693C97.0356 87.2415 96.9951 87.3393 96.9951 87.4414V88.7152C96.9951 88.8173 97.0356 88.9152 97.1075 88.9873C97.1795 89.0595 97.2771 89.1 97.3789 89.1H97.8586V91.0087H99.7938V89.1H100.274C100.375 89.1 100.473 89.0595 100.545 88.9873C100.617 88.9152 100.657 88.8173 100.657 88.7152V87.4414C100.657 87.3393 100.617 87.2415 100.545 87.1693C100.473 87.0971 100.375 87.0566 100.274 87.0566V87.0566Z" fill="#E6E6E6"/>
<path d="M103.173 98.7151C101.4 96.1142 100.494 93.0176 100.584 89.8687C100.585 89.7961 100.562 89.7251 100.517 89.6679C100.473 89.6106 100.41 89.5706 100.339 89.5547V89.0043H97.2817V89.5471H97.2396C97.1984 89.5471 97.1576 89.5553 97.1196 89.5712C97.0815 89.587 97.047 89.6102 97.0179 89.6395C96.9888 89.6687 96.9657 89.7034 96.95 89.7416C96.9343 89.7798 96.9262 89.8207 96.9263 89.862C96.9263 89.8696 96.9266 89.8772 96.9271 89.8849C97.168 93.251 96.3547 96.2696 94.4873 98.9408C94.3799 99.0943 94.325 99.2786 94.3309 99.4661L94.6652 109.833C94.6732 110.065 94.77 110.284 94.9354 110.445C95.1007 110.607 95.3219 110.698 95.5526 110.7H102.467C102.701 110.698 102.924 110.604 103.09 110.44C103.256 110.275 103.351 110.052 103.355 109.818L103.484 99.7523C103.488 99.3828 103.379 99.021 103.173 98.7151V98.7151Z" fill="#E6E6E6"/>
<path d="M102.078 102.159H96.0595C95.9704 102.159 95.8823 102.178 95.8014 102.215C95.7204 102.253 95.6485 102.307 95.5905 102.375C95.5325 102.443 95.4898 102.522 95.4653 102.608C95.4408 102.694 95.4352 102.784 95.4487 102.872L96.3582 108.8H101.581L102.686 102.892C102.702 102.803 102.699 102.711 102.676 102.623C102.654 102.535 102.612 102.453 102.554 102.383C102.496 102.313 102.423 102.256 102.341 102.217C102.259 102.179 102.169 102.159 102.078 102.159V102.159Z" fill="white"/>
<path d="M63.9812 130.962H62.6082C62.5599 130.962 62.5136 130.981 62.4795 131.015C62.4453 131.049 62.4261 131.096 62.4261 131.144V131.748C62.4261 131.797 62.4453 131.843 62.4795 131.877C62.5136 131.912 62.5599 131.931 62.6082 131.931H62.8357V132.836H63.7537V131.931H63.9812C64.0295 131.931 64.0758 131.912 64.11 131.877C64.1441 131.843 64.1633 131.797 64.1633 131.748V131.144C64.1633 131.096 64.1441 131.049 64.11 131.015C64.0758 130.981 64.0295 130.962 63.9812 130.962Z" fill="#E6E6E6"/>
<path d="M65.3565 136.492C64.5156 135.258 64.0857 133.789 64.1284 132.295C64.1292 132.261 64.1181 132.227 64.0969 132.2C64.0757 132.173 64.0458 132.154 64.0122 132.147V131.885H62.5621V132.143H62.5421C62.5226 132.143 62.5032 132.147 62.4852 132.154C62.4672 132.162 62.4508 132.173 62.437 132.187C62.4232 132.201 62.4122 132.217 62.4048 132.235C62.3973 132.253 62.3935 132.273 62.3935 132.292C62.3935 132.296 62.3937 132.299 62.3939 132.303C62.5278 133.827 62.1177 135.35 61.2366 136.599C61.1857 136.672 61.1596 136.759 61.1624 136.848L61.321 141.766C61.3248 141.875 61.3707 141.979 61.4491 142.056C61.5276 142.132 61.6325 142.176 61.7419 142.177H65.0219C65.1326 142.176 65.2386 142.131 65.3173 142.053C65.396 141.975 65.4411 141.869 65.4431 141.758L65.5042 136.984C65.506 136.808 65.4545 136.637 65.3565 136.492V136.492Z" fill="#E6E6E6"/>
<path d="M64.8845 138.299H61.7548V139.868H64.8845V138.299Z" fill="white"/>
<path d="M70.3728 130.962H68.9998C68.9515 130.962 68.9052 130.981 68.8711 131.015C68.8369 131.049 68.8177 131.096 68.8177 131.144V131.748C68.8177 131.797 68.8369 131.843 68.8711 131.877C68.9052 131.912 68.9515 131.931 68.9998 131.931H69.2273V132.836H70.1453V131.931H70.3728C70.4211 131.931 70.4674 131.912 70.5016 131.877C70.5357 131.843 70.5549 131.797 70.5549 131.748V131.144C70.5549 131.12 70.5502 131.096 70.541 131.074C70.5319 131.052 70.5185 131.032 70.5016 131.015C70.4847 130.998 70.4646 130.985 70.4425 130.975C70.4204 130.966 70.3967 130.962 70.3728 130.962V130.962Z" fill="#E6E6E6"/>
<path d="M71.7481 136.492C70.9072 135.258 70.4773 133.789 70.52 132.295C70.5208 132.261 70.5097 132.227 70.4885 132.2C70.4673 132.173 70.4374 132.154 70.4038 132.147V131.885H68.9537V132.143H68.9337C68.9142 132.143 68.8948 132.147 68.8768 132.154C68.8588 132.162 68.8424 132.173 68.8286 132.187C68.8148 132.201 68.8038 132.217 68.7964 132.235C68.7889 132.253 68.7851 132.273 68.7851 132.292C68.7851 132.296 68.7853 132.299 68.7855 132.303C68.9194 133.827 68.5093 135.35 67.6282 136.599C67.5772 136.672 67.5512 136.759 67.554 136.848L67.7126 141.766C67.7164 141.875 67.7623 141.979 67.8407 142.056C67.9192 142.132 68.0241 142.176 68.1335 142.177H71.4135C71.5242 142.176 71.6302 142.131 71.7089 142.053C71.7876 141.975 71.8327 141.869 71.8347 141.758L71.8958 136.984C71.8976 136.808 71.8461 136.637 71.7481 136.492V136.492Z" fill="#E6E6E6"/>
<path d="M71.2761 138.299H68.1464V139.868H71.2761V138.299Z" fill="white"/>
<path d="M76.7644 130.962H75.3914C75.3431 130.962 75.2968 130.981 75.2627 131.015C75.2285 131.049 75.2094 131.096 75.2094 131.144V131.748C75.2094 131.797 75.2285 131.843 75.2627 131.877C75.2968 131.912 75.3431 131.931 75.3914 131.931H75.6189V132.836H76.5369V131.931H76.7644C76.8127 131.931 76.859 131.912 76.8932 131.877C76.9273 131.843 76.9465 131.797 76.9465 131.748V131.144C76.9465 131.096 76.9273 131.049 76.8932 131.015C76.859 130.981 76.8127 130.962 76.7644 130.962V130.962Z" fill="#E6E6E6"/>
<path d="M78.1397 136.492C77.2988 135.258 76.8689 133.789 76.9116 132.295C76.9124 132.261 76.9013 132.227 76.8801 132.2C76.8589 132.173 76.829 132.154 76.7954 132.147V131.885H75.3453V132.143H75.3253C75.3058 132.143 75.2864 132.147 75.2684 132.154C75.2504 132.162 75.234 132.173 75.2202 132.187C75.2064 132.201 75.1954 132.217 75.188 132.235C75.1805 132.253 75.1767 132.273 75.1767 132.292C75.1767 132.296 75.1769 132.299 75.1771 132.303C75.311 133.827 74.9009 135.35 74.0198 136.599C73.9688 136.672 73.9428 136.759 73.9456 136.848L74.1042 141.766C74.108 141.875 74.1539 141.979 74.2323 142.056C74.3108 142.132 74.4157 142.176 74.5251 142.177H77.8051C77.9158 142.176 78.0218 142.131 78.1005 142.053C78.1792 141.975 78.2243 141.869 78.2263 141.758L78.2874 136.984C78.2893 136.808 78.2377 136.637 78.1397 136.492V136.492Z" fill="#E6E6E6"/>
<path d="M77.6677 138.299H74.538V139.868H77.6677V138.299Z" fill="white"/>
<path d="M95.2449 118.947H92.3503C92.2485 118.947 92.1509 118.988 92.0789 119.06C92.0069 119.132 91.9665 119.23 91.9665 119.332V120.606C91.9665 120.708 92.0069 120.806 92.0789 120.878C92.1509 120.95 92.2485 120.99 92.3503 120.99H92.8299V122.899H94.7652V120.99H95.2449C95.2953 120.99 95.3452 120.98 95.3918 120.961C95.4383 120.942 95.4806 120.913 95.5163 120.878C95.5519 120.842 95.5802 120.8 95.5994 120.753C95.6187 120.706 95.6287 120.656 95.6287 120.606V119.332C95.6287 119.23 95.5882 119.132 95.5163 119.06C95.4443 118.988 95.3467 118.947 95.2449 118.947V118.947Z" fill="#E6E6E6"/>
<path d="M98.1442 130.605C96.3714 128.005 95.4651 124.908 95.5552 121.759C95.5568 121.686 95.5333 121.615 95.4886 121.558C95.444 121.501 95.3809 121.461 95.3102 121.445V120.895H92.2531V121.437H92.211C92.1698 121.437 92.129 121.446 92.091 121.461C92.0529 121.477 92.0184 121.501 91.9893 121.53C91.9602 121.559 91.9371 121.594 91.9214 121.632C91.9057 121.67 91.8977 121.711 91.8977 121.752C91.8977 121.76 91.898 121.768 91.8986 121.775C92.1394 125.141 91.3261 128.16 89.4587 130.831C89.3513 130.985 89.2964 131.169 89.3023 131.356L89.6366 141.724C89.6446 141.955 89.7414 142.174 89.9068 142.336C90.0721 142.497 90.2933 142.588 90.524 142.59H97.4388C97.6722 142.588 97.8956 142.495 98.0615 142.33C98.2273 142.166 98.3225 141.942 98.3268 141.708L98.4556 131.643C98.4594 131.273 98.3508 130.911 98.1442 130.605V130.605Z" fill="#E6E6E6"/>
<path d="M97.0496 134.049H91.0308C90.9417 134.049 90.8537 134.068 90.7728 134.106C90.6918 134.143 90.6199 134.197 90.5618 134.265C90.5038 134.333 90.4611 134.413 90.4367 134.498C90.4122 134.584 90.4065 134.675 90.4201 134.763L91.3296 140.69H96.5522L97.6569 134.783C97.6736 134.693 97.6705 134.601 97.6477 134.513C97.6249 134.425 97.583 134.343 97.5251 134.273C97.4671 134.203 97.3944 134.147 97.3122 134.108C97.23 134.069 97.1404 134.049 97.0496 134.049V134.049Z" fill="white"/>
<path d="M96.8252 80.9776H79.5704C80.7767 74.4383 80.4992 66.5419 79.5704 58.0499H96.8252C95.9211 66.542 95.6509 74.4383 96.8252 80.9776Z" fill="#E6E6E6"/>
<path d="M88.3017 73.0572C90.598 73.0572 92.4595 71.1908 92.4595 68.8885C92.4595 66.5862 90.598 64.7198 88.3017 64.7198C86.0054 64.7198 84.1439 66.5862 84.1439 68.8885C84.1439 71.1908 86.0054 73.0572 88.3017 73.0572Z" fill="white"/>
<path d="M81.0256 111.409H63.7708C64.9771 104.87 64.6996 96.9732 63.7708 88.4812H81.0256C80.1215 96.9733 79.8513 104.87 81.0256 111.409Z" fill="#E6E6E6"/>
<path d="M72.5021 103.488C74.7984 103.488 76.6599 101.622 76.6599 99.3198C76.6599 97.0175 74.7984 95.1511 72.5021 95.1511C70.2058 95.1511 68.3443 97.0175 68.3443 99.3198C68.3443 101.622 70.2058 103.488 72.5021 103.488Z" fill="white"/>
<path d="M106.596 82.4366H89.3411C90.5475 75.8974 90.2699 68.001 89.3411 59.5089H106.596C105.692 68.001 105.422 75.8974 106.596 82.4366Z" fill="#E6E6E6"/>
<path d="M98.0725 74.5162C100.369 74.5162 102.23 72.6498 102.23 70.3475C102.23 68.0452 100.369 66.1788 98.0725 66.1788C95.7762 66.1788 93.9147 68.0452 93.9147 70.3475C93.9147 72.6498 95.7762 74.5162 98.0725 74.5162Z" fill="white"/>
<path d="M106.596 81.3945H89.3411C90.5475 74.8552 90.2699 66.9588 89.3411 58.4668H106.596C105.692 66.9588 105.422 74.8552 106.596 81.3945Z" fill="#E6E6E6"/>
<path d="M98.0725 73.474C100.369 73.474 102.23 71.6076 102.23 69.3053C102.23 67.003 100.369 65.1367 98.0725 65.1367C95.7762 65.1367 93.9147 67.003 93.9147 69.3053C93.9147 71.6076 95.7762 73.474 98.0725 73.474Z" fill="white"/>
<path d="M106.596 82.4366H89.3411C90.5475 75.8974 90.2699 68.001 89.3411 59.5089H106.596C105.692 68.001 105.422 75.8974 106.596 82.4366Z" fill="#E6E6E6"/>
<path d="M98.0725 74.5162C100.369 74.5162 102.23 72.6498 102.23 70.3475C102.23 68.0452 100.369 66.1788 98.0725 66.1788C95.7762 66.1788 93.9147 68.0452 93.9147 70.3475C93.9147 72.6498 95.7762 74.5162 98.0725 74.5162Z" fill="white"/>
<path d="M110.546 79.727H54V85.98H110.546V79.727Z" fill="#E6E6E6"/>
<path d="M110.546 110.784H54V117.037H110.546V110.784Z" fill="#E6E6E6"/>
<path d="M110.546 141.84H54V148.093H110.546V141.84Z" fill="#E6E6E6"/>
</g>
<defs>
<clipPath id="clip0">
<rect width="141" height="138" fill="white" transform="translate(54 56)"/>
</clipPath>
</defs>
</svg>
